<svg width="19" height="13" viewBox="0 0 19 13" fill="none" xmlns="http://www.w3.org/2000/svg">
<path d="M0.880859 7.48828V5.4043C2.39193 5.28255 3.58073 4.76335 4.44727 3.84668C5.32096 2.93001 5.78288 1.6875 5.83301 0.119141L8.35742 0.666992C8.25 1.74121 7.8418 2.73307 7.13281 3.64258C6.42383 4.55208 5.62174 5.13932 4.72656 5.4043H18.4766V7.48828H4.72656C5.62174 7.75326 6.42383 8.34049 7.13281 9.25C7.8418 10.1523 8.25 11.1406 8.35742 12.2148L5.83301 12.7734C5.78288 11.2051 5.32096 9.96257 4.44727 9.0459C3.58073 8.12923 2.39193 7.61003 0.880859 7.48828Z" fill="black"/>
</svg>
