<svg width="19" height="13" viewBox="0 0 19 13" fill="none" xmlns="http://www.w3.org/2000/svg">
<path d="M13.5352 12.7734L11 12.2148C11.1074 11.1406 11.5156 10.1523 12.2246 9.25C12.9336 8.34049 13.7357 7.75326 14.6309 7.48828H0.880859V5.4043H14.6309C13.7357 5.13932 12.9336 4.55208 12.2246 3.64258C11.5156 2.73307 11.1074 1.74121 11 0.666992L13.5352 0.119141C13.5853 1.69466 14.0436 2.94076 14.9102 3.85742C15.7767 4.76693 16.9655 5.28255 18.4766 5.4043V7.48828C16.9655 7.61003 15.7767 8.12923 14.9102 9.0459C14.0436 9.9554 13.5853 11.1979 13.5352 12.7734Z" fill="black"/>
</svg>
