<svg width="99" height="27" viewBox="0 0 99 27" fill="none" xmlns="http://www.w3.org/2000/svg">
<g filter="url(#filter0_d_1874_7117)">
<path d="M0 2.81081L0 23.1892C0 24.5946 1.39535 26 2.7907 26L97.6029 26C98.1929 26 98.7022 25.6527 98.9432 25.1481C99.1041 24.811 98.8945 24.2637 98.652 23.9809L89.2342 13L98.652 2.01912C98.8945 1.73619 99.1048 1.18903 98.9432 0.851803C98.7022 0.347895 98.1929 0 97.6029 0L2.7907 0C1.39535 0 0 1.40541 0 2.81081Z" fill="#F35859"/>
<path d="M88.8547 12.6745L88.5755 13L98.492 24.9327C98.3297 25.2724 97.9903 25.5 97.6029 25.5L2.7907 25.5C2.25691 25.5 1.68036 25.2261 1.22691 24.7693C0.773685 24.3128 0.5 23.7305 0.5 23.1892L0.5 2.81081C0.5 2.26946 0.773685 1.68715 1.22691 1.23066C1.68036 0.773941 2.25691 0.5 2.7907 0.5L97.6029 0.5C97.9901 0.5 98.3297 0.727953 98.4921 1.06753L98.4923 1.06785C98.4919 1.067 98.5004 1.08502 98.5 1.13291C98.4996 1.18023 98.4906 1.24246 98.4693 1.31547C98.425 1.46662 98.3442 1.6099 98.2724 1.69371L88.8547 12.6745Z" stroke="black"/>
</g>
<path d="M8.81445 8.59766H15.0547V10.0977H10.4375V12.1426H14.6973V13.6426H10.4375V17H8.81445V8.59766ZM20.6647 8.48047C21.2545 8.46875 21.8229 8.57812 22.3698 8.80859C22.9166 9.03906 23.3873 9.34961 23.7819 9.74023C24.1803 10.1309 24.4967 10.5957 24.7311 11.1348C24.9655 11.6699 25.0768 12.2246 25.0651 12.7988C25.0768 13.377 24.9655 13.9355 24.7311 14.4746C24.4967 15.0098 24.1803 15.4727 23.7819 15.8633C23.3873 16.2539 22.9166 16.5645 22.3698 16.7949C21.8229 17.0215 21.2545 17.1289 20.6647 17.1172C20.0748 17.1328 19.5045 17.0254 18.9538 16.7949C18.403 16.5645 17.9284 16.2539 17.5299 15.8633C17.1315 15.4688 16.8151 15.0039 16.5807 14.4688C16.3463 13.9297 16.235 13.373 16.2467 12.7988C16.235 12.2246 16.3463 11.6699 16.5807 11.1348C16.8151 10.5996 17.1315 10.1367 17.5299 9.74609C17.9284 9.35156 18.403 9.03906 18.9538 8.80859C19.5045 8.57812 20.0748 8.46875 20.6647 8.48047ZM19.2819 15.2422C19.6998 15.4688 20.1608 15.582 20.6647 15.582C21.1686 15.582 21.6295 15.4688 22.0475 15.2422C22.4655 15.0156 22.7995 14.6895 23.0495 14.2637C23.2995 13.834 23.4245 13.3457 23.4245 12.7988C23.4245 11.9746 23.1608 11.3027 22.6334 10.7832C22.1061 10.2637 21.4498 10.0039 20.6647 10.0039C19.8795 10.0039 19.2233 10.2637 18.6959 10.7832C18.1686 11.3027 17.9049 11.9746 17.9049 12.7988C17.9049 13.3457 18.0299 13.834 18.2799 14.2637C18.5299 14.6895 18.8639 15.0156 19.2819 15.2422ZM33.6868 17H31.7942C31.6848 16.7734 31.6126 16.5332 31.5774 16.2793C31.5345 15.959 31.513 15.5586 31.513 15.0781C31.513 14.5859 31.3977 14.2285 31.1673 14.0059C30.9407 13.7793 30.6009 13.666 30.1477 13.666H28.3489V17H26.7259V8.59766H30.845C31.6887 8.59766 32.3587 8.82031 32.8548 9.26562C33.3548 9.71094 33.6048 10.2773 33.6048 10.9648C33.6048 11.4648 33.4544 11.9141 33.1536 12.3125C32.8567 12.707 32.4544 12.998 31.9466 13.1855C32.3411 13.3145 32.6516 13.5371 32.8782 13.8535C33.1048 14.166 33.2298 14.5664 33.2532 15.0547C33.2766 15.5469 33.3157 15.916 33.3704 16.1621C33.429 16.4043 33.5345 16.6191 33.6868 16.8066V17ZM28.3489 12.166H30.7454C31.1399 12.166 31.4446 12.0723 31.6595 11.8848C31.8743 11.6973 31.9817 11.4414 31.9817 11.1172C31.9817 10.7969 31.8743 10.5469 31.6595 10.3672C31.4485 10.1875 31.1438 10.0977 30.7454 10.0977H28.3489V12.166ZM40.1666 13.7598V17H38.5435V8.59766H42.5045C42.942 8.59766 43.3365 8.66797 43.688 8.80859C44.0435 8.94531 44.3345 9.13281 44.5611 9.37109C44.7877 9.60547 44.9615 9.87695 45.0826 10.1855C45.2037 10.4941 45.2642 10.8223 45.2642 11.1699C45.2642 11.627 45.1607 12.0488 44.9537 12.4355C44.7505 12.8223 44.4361 13.1406 44.0103 13.3906C43.5845 13.6367 43.0826 13.7598 42.5045 13.7598H40.1666ZM40.1666 12.2598H42.3873C42.7584 12.2598 43.0572 12.1641 43.2838 11.9727C43.5103 11.7773 43.6236 11.5137 43.6236 11.1816C43.6236 10.8457 43.5103 10.582 43.2838 10.3906C43.0572 10.1953 42.7584 10.0977 42.3873 10.0977H40.1666V12.2598ZM45.1027 17L48.4836 8.59766H50.7746L54.1496 17H52.3625L51.6301 15.1016H47.6223L46.9016 17H45.1027ZM48.1848 13.6426H51.0734L49.6262 9.88672L48.1848 13.6426ZM62.4198 17H60.5272C60.4178 16.7734 60.3455 16.5332 60.3104 16.2793C60.2674 15.959 60.2459 15.5586 60.2459 15.0781C60.2459 14.5859 60.1307 14.2285 59.9002 14.0059C59.6737 13.7793 59.3338 13.666 58.8807 13.666H57.0819V17H55.4588V8.59766H59.578C60.4217 8.59766 61.0916 8.82031 61.5877 9.26562C62.0877 9.71094 62.3377 10.2773 62.3377 10.9648C62.3377 11.4648 62.1873 11.9141 61.8866 12.3125C61.5897 12.707 61.1873 12.998 60.6795 13.1855C61.0741 13.3145 61.3846 13.5371 61.6112 13.8535C61.8377 14.166 61.9627 14.5664 61.9862 15.0547C62.0096 15.5469 62.0487 15.916 62.1034 16.1621C62.162 16.4043 62.2674 16.6191 62.4198 16.8066V17ZM57.0819 12.166H59.4784C59.8729 12.166 60.1776 12.0723 60.3924 11.8848C60.6073 11.6973 60.7147 11.4414 60.7147 11.1172C60.7147 10.7969 60.6073 10.5469 60.3924 10.3672C60.1815 10.1875 59.8768 10.0977 59.4784 10.0977H57.0819V12.166ZM71.0649 8.59766V10.0977H68.1059V17H66.4829V10.0977H63.5063V8.59766H71.0649ZM75.3741 9.92188C74.9796 9.92188 74.6613 10.0059 74.4191 10.1738C74.1769 10.3418 74.0558 10.5566 74.0558 10.8184C74.0558 11.1387 74.2218 11.3965 74.5538 11.5918C74.8859 11.7871 75.3722 11.9453 76.0128 12.0664C77.0558 12.2617 77.8097 12.5527 78.2745 12.9395C78.7433 13.3223 78.9777 13.8672 78.9777 14.5742C78.9777 15.3164 78.671 15.9258 78.0577 16.4023C77.4445 16.8789 76.6339 17.1172 75.6261 17.1172C74.7941 17.1172 74.0265 16.9258 73.3234 16.543C72.6124 16.1445 72.0968 15.4844 71.7765 14.5625L73.2179 13.666C73.382 14.3105 73.6749 14.8027 74.0968 15.1426C74.5226 15.4785 75.046 15.6465 75.6671 15.6465C76.171 15.6465 76.5734 15.5547 76.8741 15.3711C77.1788 15.1875 77.3312 14.9434 77.3312 14.6387C77.3312 14.3223 77.1886 14.0723 76.9034 13.8887C76.6183 13.7012 76.1222 13.5508 75.4152 13.4375C73.4308 13.1367 72.4386 12.2598 72.4386 10.8066C72.4386 10.1543 72.7218 9.60352 73.2882 9.1543C73.8546 8.70508 74.5831 8.48047 75.4738 8.48047C76.2277 8.48047 76.882 8.66016 77.4366 9.01953C77.9913 9.37891 78.3839 9.88672 78.6144 10.543L77.214 11.3574C76.9523 10.4004 76.339 9.92188 75.3741 9.92188Z" fill="black"/>
<defs>
<filter id="filter0_d_1874_7117" x="0" y="0" width="99" height="27" filterUnits="userSpaceOnUse" color-interpolation-filters="sRGB">
<feFlood flood-opacity="0" result="BackgroundImageFix"/>
<feColorMatrix in="SourceAlpha" type="matrix" values="0 0 0 0 0 0 0 0 0 0 0 0 0 0 0 0 0 0 127 0" result="hardAlpha"/>
<feOffset dy="1"/>
<feComposite in2="hardAlpha" operator="out"/>
<feColorMatrix type="matrix" values="0 0 0 0 0 0 0 0 0 0 0 0 0 0 0 0 0 0 1 0"/>
<feBlend mode="normal" in2="BackgroundImageFix" result="effect1_dropShadow_1874_7117"/>
<feBlend mode="normal" in="SourceGraphic" in2="effect1_dropShadow_1874_7117" result="shape"/>
</filter>
</defs>
</svg>
