<svg width="129" height="40" viewBox="0 0 129 40" fill="none" xmlns="http://www.w3.org/2000/svg">
<g filter="url(#filter0_d_1874_7108)">
<path d="M0 4L0 33C0 35 2 37 4 37L126.997 37C127.843 37 128.573 36.5057 128.919 35.7877C129.149 35.3079 128.849 34.5291 128.501 34.1266L115.002 18.5L128.501 2.87337C128.849 2.47074 129.15 1.69209 128.919 1.21218C128.573 0.495079 127.843 0 126.997 0L4 0C2 0 0 2 0 4Z" fill="#F35859"/>
<path d="M114.624 18.1731L114.342 18.5L114.624 18.8269L128.123 34.4535C128.247 34.5969 128.376 34.8277 128.447 35.0693C128.522 35.3233 128.505 35.4931 128.468 35.5709C128.202 36.1235 127.643 36.5 126.997 36.5L4 36.5C3.16262 36.5 2.28338 36.0763 1.60355 35.3964C0.923726 34.7166 0.5 33.8374 0.5 33L0.5 4C0.5 3.16262 0.923726 2.28338 1.60355 1.60355C2.28338 0.923725 3.16262 0.5 4 0.5L126.997 0.5C127.642 0.5 128.202 0.877087 128.468 1.42917L128.468 1.42949C128.506 1.50702 128.522 1.67641 128.447 1.93046C128.376 2.1719 128.247 2.40285 128.123 2.54661L114.624 18.1731Z" stroke="black"/>
</g>
<path d="M18.9502 13.1973H26.2305V14.9473H20.8438V17.333H25.8135V19.083H20.8438V23H18.9502V13.1973ZM32.3555 13.0605C33.0436 13.0469 33.7067 13.1745 34.3447 13.4434C34.9827 13.7122 35.5319 14.0745 35.9922 14.5303C36.457 14.986 36.8262 15.5283 37.0996 16.1572C37.373 16.7816 37.5029 17.4287 37.4893 18.0986C37.5029 18.7731 37.373 19.4248 37.0996 20.0537C36.8262 20.6781 36.457 21.2181 35.9922 21.6738C35.5319 22.1296 34.9827 22.4919 34.3447 22.7607C33.7067 23.0251 33.0436 23.1504 32.3555 23.1367C31.6673 23.1549 31.002 23.0296 30.3594 22.7607C29.7168 22.4919 29.1631 22.1296 28.6982 21.6738C28.2334 21.2135 27.8643 20.6712 27.5908 20.0469C27.3174 19.418 27.1875 18.7686 27.2012 18.0986C27.1875 17.4287 27.3174 16.7816 27.5908 16.1572C27.8643 15.5329 28.2334 14.9928 28.6982 14.5371C29.1631 14.0768 29.7168 13.7122 30.3594 13.4434C31.002 13.1745 31.6673 13.0469 32.3555 13.0605ZM30.7422 20.9492C31.2298 21.2135 31.7676 21.3457 32.3555 21.3457C32.9434 21.3457 33.4811 21.2135 33.9688 20.9492C34.4564 20.6849 34.846 20.3044 35.1377 19.8076C35.4294 19.3063 35.5752 18.7367 35.5752 18.0986C35.5752 17.137 35.2676 16.3532 34.6523 15.7471C34.0371 15.141 33.2715 14.8379 32.3555 14.8379C31.4395 14.8379 30.6738 15.141 30.0586 15.7471C29.4434 16.3532 29.1357 17.137 29.1357 18.0986C29.1357 18.7367 29.2816 19.3063 29.5732 19.8076C29.8649 20.3044 30.2546 20.6849 30.7422 20.9492ZM47.1279 23H44.9199C44.7923 22.7357 44.708 22.4554 44.667 22.1592C44.6169 21.7855 44.5918 21.3184 44.5918 20.7578C44.5918 20.1836 44.4574 19.7666 44.1885 19.5068C43.9242 19.2425 43.5277 19.1104 42.999 19.1104H40.9004V23H39.0068V13.1973H43.8125C44.7969 13.1973 45.5785 13.457 46.1572 13.9766C46.7406 14.4961 47.0322 15.1569 47.0322 15.959C47.0322 16.5423 46.8568 17.0664 46.5059 17.5312C46.1595 17.9915 45.6901 18.3311 45.0977 18.5498C45.5579 18.7002 45.9202 18.96 46.1846 19.3291C46.4489 19.6937 46.5947 20.1608 46.6221 20.7305C46.6494 21.3047 46.695 21.7354 46.7588 22.0225C46.8271 22.305 46.9502 22.5557 47.1279 22.7744V23ZM40.9004 17.3604H43.6963C44.1566 17.3604 44.512 17.251 44.7627 17.0322C45.0133 16.8135 45.1387 16.515 45.1387 16.1367C45.1387 15.763 45.0133 15.4714 44.7627 15.2617C44.5166 15.0521 44.1611 14.9473 43.6963 14.9473H40.9004V17.3604ZM53.8477 19.2197V23H51.9541V13.1973H56.5752C57.0856 13.1973 57.5459 13.2793 57.9561 13.4434C58.3708 13.6029 58.7103 13.8216 58.9746 14.0996C59.2389 14.373 59.4417 14.6898 59.583 15.0498C59.7243 15.4098 59.7949 15.7926 59.7949 16.1982C59.7949 16.7314 59.6742 17.2236 59.4326 17.6748C59.1956 18.126 58.8288 18.4974 58.332 18.7891C57.8353 19.0762 57.2497 19.2197 56.5752 19.2197H53.8477ZM53.8477 17.4697H56.4385C56.8714 17.4697 57.2201 17.3581 57.4844 17.1348C57.7487 16.9069 57.8809 16.5993 57.8809 16.2119C57.8809 15.82 57.7487 15.5124 57.4844 15.2891C57.2201 15.0612 56.8714 14.9473 56.4385 14.9473H53.8477V17.4697ZM59.1865 23L63.1309 13.1973H65.8037L69.7412 23H67.6562L66.8018 20.7852H62.126L61.2852 23H59.1865ZM62.7822 19.083H66.1523L64.4639 14.7012L62.7822 19.083ZM78.9697 23H76.7617C76.6341 22.7357 76.5498 22.4554 76.5088 22.1592C76.4587 21.7855 76.4336 21.3184 76.4336 20.7578C76.4336 20.1836 76.2992 19.7666 76.0303 19.5068C75.766 19.2425 75.3695 19.1104 74.8408 19.1104H72.7422V23H70.8486V13.1973H75.6543C76.6387 13.1973 77.4202 13.457 77.999 13.9766C78.5824 14.4961 78.874 15.1569 78.874 15.959C78.874 16.5423 78.6986 17.0664 78.3477 17.5312C78.0013 17.9915 77.5319 18.3311 76.9395 18.5498C77.3997 18.7002 77.762 18.96 78.0264 19.3291C78.2907 19.6937 78.4365 20.1608 78.4639 20.7305C78.4912 21.3047 78.5368 21.7354 78.6006 22.0225C78.6689 22.305 78.792 22.5557 78.9697 22.7744V23ZM72.7422 17.3604H75.5381C75.9984 17.3604 76.3538 17.251 76.6045 17.0322C76.8551 16.8135 76.9805 16.515 76.9805 16.1367C76.9805 15.763 76.8551 15.4714 76.6045 15.2617C76.3584 15.0521 76.0029 14.9473 75.5381 14.9473H72.7422V17.3604ZM88.6357 13.1973V14.9473H85.1836V23H83.29V14.9473H79.8174V13.1973H88.6357ZM93.2432 14.7422C92.7829 14.7422 92.4115 14.8402 92.1289 15.0361C91.8464 15.2321 91.7051 15.4827 91.7051 15.7881C91.7051 16.1618 91.8988 16.4626 92.2861 16.6904C92.6735 16.9183 93.2409 17.1029 93.9883 17.2441C95.2051 17.472 96.0846 17.8115 96.627 18.2627C97.1738 18.7093 97.4473 19.3451 97.4473 20.1699C97.4473 21.0358 97.0895 21.7467 96.374 22.3027C95.6585 22.8587 94.7129 23.1367 93.5371 23.1367C92.5664 23.1367 91.6709 22.9134 90.8506 22.4668C90.0212 22.002 89.4196 21.2318 89.0459 20.1562L90.7275 19.1104C90.9189 19.8623 91.2607 20.4365 91.7529 20.833C92.2497 21.2249 92.8604 21.4209 93.585 21.4209C94.1729 21.4209 94.6423 21.3138 94.9932 21.0996C95.3486 20.8854 95.5264 20.6006 95.5264 20.2451C95.5264 19.876 95.36 19.5843 95.0273 19.3701C94.6947 19.1514 94.1159 18.9759 93.291 18.8438C90.9759 18.4928 89.8184 17.4697 89.8184 15.7744C89.8184 15.0133 90.1488 14.3708 90.8096 13.8467C91.4704 13.3226 92.3203 13.0605 93.3594 13.0605C94.2389 13.0605 95.0023 13.2702 95.6494 13.6895C96.2965 14.1087 96.7546 14.7012 97.0234 15.4668L95.3896 16.417C95.0843 15.3005 94.3688 14.7422 93.2432 14.7422Z" fill="black"/>
<defs>
<filter id="filter0_d_1874_7108" x="0" y="0" width="129" height="40" filterUnits="userSpaceOnUse" color-interpolation-filters="sRGB">
<feFlood flood-opacity="0" result="BackgroundImageFix"/>
<feColorMatrix in="SourceAlpha" type="matrix" values="0 0 0 0 0 0 0 0 0 0 0 0 0 0 0 0 0 0 127 0" result="hardAlpha"/>
<feOffset dy="3"/>
<feComposite in2="hardAlpha" operator="out"/>
<feColorMatrix type="matrix" values="0 0 0 0 0 0 0 0 0 0 0 0 0 0 0 0 0 0 1 0"/>
<feBlend mode="normal" in2="BackgroundImageFix" result="effect1_dropShadow_1874_7108"/>
<feBlend mode="normal" in="SourceGraphic" in2="effect1_dropShadow_1874_7108" result="shape"/>
</filter>
</defs>
</svg>
