<svg width="84" height="40" viewBox="0 0 84 40" fill="none" xmlns="http://www.w3.org/2000/svg">
<g filter="url(#filter0_d_1874_7102)">
<path d="M0 4L0 33C0 35 2 37 4 37L81.9975 37C82.8431 37 83.5732 36.5057 83.9186 35.7877C84.1492 35.3079 83.8488 34.5291 83.5012 34.1266L70.0024 18.5L83.5012 2.87337C83.8488 2.47074 84.1502 1.69209 83.9186 1.21218C83.5732 0.495079 82.8431 0 81.9975 0L4 0C2 0 0 2 0 4Z" fill="#B8E1FF"/>
<path d="M69.624 18.1731L69.3417 18.5L69.624 18.8269L83.1228 34.4535C83.2467 34.5969 83.376 34.8277 83.4471 35.0693C83.5218 35.3233 83.5054 35.4931 83.468 35.5709C83.2022 36.1235 82.6426 36.5 81.9975 36.5L4 36.5C3.16262 36.5 2.28338 36.0763 1.60355 35.3964C0.923726 34.7166 0.5 33.8374 0.5 33L0.5 4C0.5 3.16262 0.923726 2.28338 1.60355 1.60355C2.28338 0.923725 3.16262 0.5 4 0.5L81.9975 0.5C82.6423 0.5 83.2022 0.87709 83.4681 1.42917L83.4683 1.42949C83.5057 1.50701 83.5223 1.67641 83.4475 1.93046C83.3764 2.1719 83.2468 2.40285 83.1227 2.54661L69.624 18.1731Z" stroke="black"/>
</g>
<path d="M20.8438 14.5029V23H18.9502V13.1973H22.2109L26.2852 21.7012V13.1973H28.1787V23H24.918L20.8438 14.5029ZM30.0791 13.1973H37.4482V14.9473H31.9727V17.0801H37.0244V18.8301H31.9727V21.25H37.585V23H30.0791V13.1973ZM40.4355 23L38.3643 13.1973H40.3193L42.001 21.7422L43.751 13.1973H46.9707L48.7207 21.7422L50.4023 13.1973H52.3643L50.2998 23H47.1553L45.3643 14.4619L43.5801 23H40.4355Z" fill="black"/>
<defs>
<filter id="filter0_d_1874_7102" x="0" y="0" width="84" height="40" filterUnits="userSpaceOnUse" color-interpolation-filters="sRGB">
<feFlood flood-opacity="0" result="BackgroundImageFix"/>
<feColorMatrix in="SourceAlpha" type="matrix" values="0 0 0 0 0 0 0 0 0 0 0 0 0 0 0 0 0 0 127 0" result="hardAlpha"/>
<feOffset dy="3"/>
<feComposite in2="hardAlpha" operator="out"/>
<feColorMatrix type="matrix" values="0 0 0 0 0 0 0 0 0 0 0 0 0 0 0 0 0 0 1 0"/>
<feBlend mode="normal" in2="BackgroundImageFix" result="effect1_dropShadow_1874_7102"/>
<feBlend mode="normal" in="SourceGraphic" in2="effect1_dropShadow_1874_7102" result="shape"/>
</filter>
</defs>
</svg>
