<svg width="58" height="26" viewBox="0 0 58 26" fill="none" xmlns="http://www.w3.org/2000/svg">
<g filter="url(#filter0_d_1874_7111)">
<path d="M0 2.7027L0 22.2973C0 23.6486 1.38095 25 2.7619 25L56.6173 25C57.2012 25 57.7053 24.666 57.9438 24.1809C58.1031 23.8567 57.8956 23.3305 57.6556 23.0585L48.335 12.5L57.6556 1.94146C57.8956 1.66942 58.1037 1.1433 57.9438 0.81904C57.7053 0.334513 57.2012 0 56.6173 0L2.7619 0C1.38095 0 0 1.35135 0 2.7027Z" fill="#B8E1FF"/>
<path d="M47.9601 12.1691L47.668 12.5L47.9601 12.8309L57.2807 23.3894C57.2807 23.3894 57.2807 23.3894 57.2807 23.3894C57.35 23.4679 57.4281 23.6026 57.4706 23.7441C57.5132 23.8859 57.497 23.952 57.4951 23.9597C57.495 23.9603 57.4949 23.9605 57.495 23.9604C57.3387 24.2781 57.0065 24.5 56.6173 24.5L2.7619 24.5C2.23025 24.5 1.65943 24.2351 1.2128 23.798C0.765491 23.3603 0.5 22.8065 0.5 22.2973L0.5 2.7027C0.5 2.19351 0.765491 1.63968 1.2128 1.20196C1.65943 0.764902 2.23025 0.5 2.7619 0.5L56.6173 0.5C57.0063 0.5 57.3389 0.722279 57.4952 1.03986L57.4954 1.04019C57.4952 1.03994 57.4953 1.04018 57.4955 1.04091C57.4974 1.04885 57.5134 1.11464 57.4709 1.2557C57.4283 1.397 57.3502 1.53179 57.2807 1.61057C57.2807 1.6106 57.2807 1.61063 57.2807 1.61066L47.9601 12.1691Z" stroke="black"/>
</g>
<path d="M11.4375 9.7168V17H9.81445V8.59766H12.6094L16.1016 15.8867V8.59766H17.7246V17H14.9297L11.4375 9.7168ZM19.7135 8.59766H26.0299V10.0977H21.3366V11.9258H25.6666V13.4258H21.3366V15.5H26.1471V17H19.7135V8.59766ZM28.9505 17L27.1751 8.59766H28.8509L30.2923 15.9219L31.7923 8.59766H34.552L36.052 15.9219L37.4934 8.59766H39.1751L37.4055 17H34.7102L33.1751 9.68164L31.6458 17H28.9505Z" fill="black"/>
<defs>
<filter id="filter0_d_1874_7111" x="0" y="0" width="58" height="26" filterUnits="userSpaceOnUse" color-interpolation-filters="sRGB">
<feFlood flood-opacity="0" result="BackgroundImageFix"/>
<feColorMatrix in="SourceAlpha" type="matrix" values="0 0 0 0 0 0 0 0 0 0 0 0 0 0 0 0 0 0 127 0" result="hardAlpha"/>
<feOffset dy="1"/>
<feComposite in2="hardAlpha" operator="out"/>
<feColorMatrix type="matrix" values="0 0 0 0 0 0 0 0 0 0 0 0 0 0 0 0 0 0 1 0"/>
<feBlend mode="normal" in2="BackgroundImageFix" result="effect1_dropShadow_1874_7111"/>
<feBlend mode="normal" in="SourceGraphic" in2="effect1_dropShadow_1874_7111" result="shape"/>
</filter>
</defs>
</svg>
