<svg width="88" height="40" viewBox="0 0 88 40" fill="none" xmlns="http://www.w3.org/2000/svg">
<g filter="url(#filter0_d_1874_7105)">
<path d="M0 4L0 33C0 35 2 37 4 37L85.9975 37C86.8431 37 87.5732 36.5057 87.9186 35.7877C88.1492 35.3079 87.8488 34.5291 87.5012 34.1266L74.0024 18.5L87.5012 2.87337C87.8488 2.47074 88.1502 1.69209 87.9186 1.21218C87.5732 0.495079 86.8431 0 85.9975 0L4 0C2 0 0 2 0 4Z" fill="#FFDC25"/>
<path d="M73.624 18.1731L73.3417 18.5L73.624 18.8269L87.1228 34.4535C87.2467 34.5969 87.376 34.8277 87.4471 35.0693C87.5218 35.3233 87.5054 35.4931 87.468 35.5709C87.2022 36.1235 86.6426 36.5 85.9975 36.5L4 36.5C3.16262 36.5 2.28338 36.0763 1.60355 35.3964C0.923726 34.7166 0.5 33.8374 0.5 33L0.5 4C0.5 3.16262 0.923726 2.28338 1.60355 1.60355C2.28338 0.923725 3.16262 0.5 4 0.5L85.9975 0.5C86.6423 0.5 87.2022 0.87709 87.4681 1.42917L87.4683 1.42949C87.5057 1.50701 87.5223 1.67641 87.4475 1.93046C87.3764 2.1719 87.2468 2.40285 87.1227 2.54661L73.624 18.1731Z" stroke="black"/>
</g>
<path d="M18.8545 13.1973H20.7412V18.9941C20.7412 19.737 20.9417 20.3226 21.3428 20.751C21.7438 21.1748 22.2861 21.3867 22.9697 21.3867C23.6533 21.3867 24.1934 21.1748 24.5898 20.751C24.9863 20.3271 25.1846 19.7415 25.1846 18.9941V13.1973H27.0713V19.0352C27.0713 20.2793 26.6999 21.2751 25.957 22.0225C25.2188 22.7653 24.223 23.1367 22.9697 23.1367C21.7074 23.1367 20.7048 22.7653 19.9619 22.0225C19.2236 21.2751 18.8545 20.2793 18.8545 19.0352V13.1973ZM32.417 14.7422C31.9567 14.7422 31.5853 14.8402 31.3027 15.0361C31.0202 15.2321 30.8789 15.4827 30.8789 15.7881C30.8789 16.1618 31.0726 16.4626 31.46 16.6904C31.8473 16.9183 32.4147 17.1029 33.1621 17.2441C34.3789 17.472 35.2585 17.8115 35.8008 18.2627C36.3477 18.7093 36.6211 19.3451 36.6211 20.1699C36.6211 21.0358 36.2633 21.7467 35.5479 22.3027C34.8324 22.8587 33.8867 23.1367 32.7109 23.1367C31.7402 23.1367 30.8447 22.9134 30.0244 22.4668C29.195 22.002 28.5934 21.2318 28.2197 20.1562L29.9014 19.1104C30.0928 19.8623 30.4346 20.4365 30.9268 20.833C31.4235 21.2249 32.0342 21.4209 32.7588 21.4209C33.3467 21.4209 33.8161 21.3138 34.167 21.0996C34.5225 20.8854 34.7002 20.6006 34.7002 20.2451C34.7002 19.876 34.5339 19.5843 34.2012 19.3701C33.8685 19.1514 33.2897 18.9759 32.4648 18.8438C30.1497 18.4928 28.9922 17.4697 28.9922 15.7744C28.9922 15.0133 29.3226 14.3708 29.9834 13.8467C30.6442 13.3226 31.4941 13.0605 32.5332 13.0605C33.4128 13.0605 34.1761 13.2702 34.8232 13.6895C35.4704 14.1087 35.9284 14.7012 36.1973 15.4668L34.5635 16.417C34.2581 15.3005 33.5426 14.7422 32.417 14.7422ZM38.0088 13.1973H45.3779V14.9473H39.9023V17.0801H44.9541V18.8301H39.9023V21.25H45.5146V23H38.0088V13.1973ZM47.0869 23V13.1973H50.8672C51.929 13.1973 52.8451 13.4069 53.6152 13.8262C54.39 14.2409 54.9733 14.8197 55.3652 15.5625C55.7572 16.3053 55.9531 17.1735 55.9531 18.167C55.9531 18.8643 55.8369 19.5091 55.6045 20.1016C55.3766 20.6895 55.0485 21.1999 54.6201 21.6328C54.1963 22.0612 53.6654 22.3962 53.0273 22.6377C52.3893 22.8792 51.6829 23 50.9082 23H47.0869ZM48.9805 14.9062V21.2773H50.8672C51.888 21.2773 52.6742 20.988 53.2256 20.4092C53.7816 19.8258 54.0596 19.0785 54.0596 18.167C54.0596 17.1507 53.7816 16.3532 53.2256 15.7744C52.6742 15.1956 51.8789 14.9062 50.8398 14.9062H48.9805Z" fill="black"/>
<defs>
<filter id="filter0_d_1874_7105" x="0" y="0" width="88" height="40" filterUnits="userSpaceOnUse" color-interpolation-filters="sRGB">
<feFlood flood-opacity="0" result="BackgroundImageFix"/>
<feColorMatrix in="SourceAlpha" type="matrix" values="0 0 0 0 0 0 0 0 0 0 0 0 0 0 0 0 0 0 127 0" result="hardAlpha"/>
<feOffset dy="3"/>
<feComposite in2="hardAlpha" operator="out"/>
<feColorMatrix type="matrix" values="0 0 0 0 0 0 0 0 0 0 0 0 0 0 0 0 0 0 1 0"/>
<feBlend mode="normal" in2="BackgroundImageFix" result="effect1_dropShadow_1874_7105"/>
<feBlend mode="normal" in="SourceGraphic" in2="effect1_dropShadow_1874_7105" result="shape"/>
</filter>
</defs>
</svg>
