<svg width="62" height="27" viewBox="0 0 62 27" fill="none" xmlns="http://www.w3.org/2000/svg">
<g filter="url(#filter0_d_1874_7114)">
<path d="M0 2.81081L0 23.1892C0 24.5946 1.40909 26 2.81818 26L60.5891 26C61.1849 26 61.6993 25.6527 61.9426 25.1481C62.1051 24.811 61.8935 24.2637 61.6486 23.9809L52.1381 13L61.6486 2.01912C61.8935 1.73619 62.1058 1.18903 61.9426 0.851803C61.6993 0.347895 61.1849 0 60.5891 0L2.81818 0C1.40909 0 0 1.40541 0 2.81081Z" fill="#FFDC25"/>
<path d="M61.6486 2.01912C61.8935 1.73619 62.1058 1.18903 61.9426 0.851803L61.2705 1.69188L51.7601 12.6727L51.4766 13L51.7601 13.3273L61.2706 24.3082C61.2706 24.3082 61.2706 24.3082 61.2706 24.3082C61.3431 24.3919 61.4244 24.5349 61.4688 24.6856C61.4903 24.7584 61.4993 24.8203 61.4997 24.8672C61.5001 24.9131 61.4922 24.931 61.4922 24.931L61.4922 24.931C61.3288 25.2698 60.9851 25.5 60.5891 25.5L2.81818 25.5C2.27579 25.5 1.69188 25.2245 1.23377 24.7676C0.775587 24.3106 0.5 23.7288 0.5 23.1892L0.5 2.81081C0.5 2.27119 0.775587 1.68938 1.23377 1.2324C1.69188 0.775488 2.27579 0.5 2.81818 0.5L60.5891 0.5C60.9849 0.5 61.3289 0.73061 61.4924 1.06925L61.4925 1.06951C61.4923 1.06906 61.5003 1.08669 61.5 1.13286C61.4996 1.17964 61.4906 1.24143 61.4691 1.31419C61.4246 1.46476 61.3433 1.60782 61.2706 1.69178L61.6486 2.01912ZM61.6486 2.01912L52.1381 13L61.6486 2.01912Z" stroke="black"/>
</g>
<path d="M9.73242 8.59766H11.3496V13.5664C11.3496 14.2031 11.5215 14.7051 11.8652 15.0723C12.209 15.4355 12.6738 15.6172 13.2598 15.6172C13.8457 15.6172 14.3086 15.4355 14.6484 15.0723C14.9883 14.709 15.1582 14.207 15.1582 13.5664V8.59766H16.7754V13.6016C16.7754 14.668 16.457 15.5215 15.8203 16.1621C15.1875 16.7988 14.334 17.1172 13.2598 17.1172C12.1777 17.1172 11.3184 16.7988 10.6816 16.1621C10.0488 15.5215 9.73242 14.668 9.73242 13.6016V8.59766ZM21.7174 9.92188C21.3229 9.92188 21.0045 10.0059 20.7623 10.1738C20.5202 10.3418 20.3991 10.5566 20.3991 10.8184C20.3991 11.1387 20.5651 11.3965 20.8971 11.5918C21.2291 11.7871 21.7155 11.9453 22.3561 12.0664C23.3991 12.2617 24.153 12.5527 24.6178 12.9395C25.0866 13.3223 25.3209 13.8672 25.3209 14.5742C25.3209 15.3164 25.0143 15.9258 24.401 16.4023C23.7877 16.8789 22.9772 17.1172 21.9694 17.1172C21.1373 17.1172 20.3698 16.9258 19.6666 16.543C18.9557 16.1445 18.4401 15.4844 18.1198 14.5625L19.5612 13.666C19.7252 14.3105 20.0182 14.8027 20.4401 15.1426C20.8659 15.4785 21.3893 15.6465 22.0104 15.6465C22.5143 15.6465 22.9166 15.5547 23.2174 15.3711C23.5221 15.1875 23.6745 14.9434 23.6745 14.6387C23.6745 14.3223 23.5319 14.0723 23.2467 13.8887C22.9616 13.7012 22.4655 13.5508 21.7584 13.4375C19.7741 13.1367 18.7819 12.2598 18.7819 10.8066C18.7819 10.1543 19.0651 9.60352 19.6315 9.1543C20.1979 8.70508 20.9264 8.48047 21.817 8.48047C22.5709 8.48047 23.2252 8.66016 23.7799 9.01953C24.3346 9.37891 24.7272 9.88672 24.9577 10.543L23.5573 11.3574C23.2955 10.4004 22.6823 9.92188 21.7174 9.92188ZM26.8704 8.59766H33.1868V10.0977H28.4934V11.9258H32.8235V13.4258H28.4934V15.5H33.304V17H26.8704V8.59766ZM35.0116 17V8.59766H38.2519C39.162 8.59766 39.9472 8.77734 40.6073 9.13672C41.2714 9.49219 41.7714 9.98828 42.1073 10.625C42.4433 11.2617 42.6112 12.0059 42.6112 12.8574C42.6112 13.4551 42.5116 14.0078 42.3124 14.5156C42.1171 15.0195 41.8359 15.457 41.4687 15.8281C41.1054 16.1953 40.6503 16.4824 40.1034 16.6895C39.5566 16.8965 38.9511 17 38.287 17H35.0116ZM36.6347 10.0625V15.5234H38.2519C39.1269 15.5234 39.8007 15.2754 40.2734 14.7793C40.7499 14.2793 40.9882 13.6387 40.9882 12.8574C40.9882 11.9863 40.7499 11.3027 40.2734 10.8066C39.8007 10.3105 39.1191 10.0625 38.2284 10.0625H36.6347Z" fill="black"/>
<defs>
<filter id="filter0_d_1874_7114" x="0" y="0" width="62" height="27" filterUnits="userSpaceOnUse" color-interpolation-filters="sRGB">
<feFlood flood-opacity="0" result="BackgroundImageFix"/>
<feColorMatrix in="SourceAlpha" type="matrix" values="0 0 0 0 0 0 0 0 0 0 0 0 0 0 0 0 0 0 127 0" result="hardAlpha"/>
<feOffset dy="1"/>
<feComposite in2="hardAlpha" operator="out"/>
<feColorMatrix type="matrix" values="0 0 0 0 0 0 0 0 0 0 0 0 0 0 0 0 0 0 1 0"/>
<feBlend mode="normal" in2="BackgroundImageFix" result="effect1_dropShadow_1874_7114"/>
<feBlend mode="normal" in="SourceGraphic" in2="effect1_dropShadow_1874_7114" result="shape"/>
</filter>
</defs>
</svg>
