<svg width="88" height="40" viewBox="0 0 88 40" fill="none" xmlns="http://www.w3.org/2000/svg">
<g filter="url(#filter0_d_1_22442)">
<path d="M0 4L0 33C0 35 2 37 4 37L85.9975 37C86.8431 37 87.5732 36.5057 87.9186 35.7877C88.1492 35.3079 87.8488 34.5291 87.5012 34.1266L74.0024 18.5L87.5012 2.87337C87.8488 2.47074 88.1502 1.69209 87.9186 1.21218C87.5732 0.495079 86.8431 0 85.9975 0L4 0C2 0 0 2 0 4Z" fill="#FFDC25"/>
<path d="M73.624 18.1731L73.3417 18.5L73.624 18.8269L87.1228 34.4535C87.2467 34.5969 87.376 34.8277 87.4471 35.0693C87.5218 35.3233 87.5054 35.4931 87.468 35.5709C87.2022 36.1235 86.6426 36.5 85.9975 36.5L4 36.5C3.16262 36.5 2.28338 36.0763 1.60355 35.3964C0.923726 34.7166 0.5 33.8374 0.5 33L0.5 4C0.5 3.16262 0.923726 2.28338 1.60355 1.60355C2.28338 0.923725 3.16262 0.5 4 0.5L85.9975 0.5C86.6423 0.5 87.2022 0.87709 87.4681 1.42917L87.4683 1.42949C87.5057 1.50701 87.5223 1.67641 87.4475 1.93046C87.3764 2.1719 87.2468 2.40285 87.1227 2.54661L73.624 18.1731Z" stroke="black"/>
</g>
<defs>
<filter id="filter0_d_1_22442" x="0" y="0" width="88" height="40" filterUnits="userSpaceOnUse" color-interpolation-filters="sRGB">
<feFlood flood-opacity="0" result="BackgroundImageFix"/>
<feColorMatrix in="SourceAlpha" type="matrix" values="0 0 0 0 0 0 0 0 0 0 0 0 0 0 0 0 0 0 127 0" result="hardAlpha"/>
<feOffset dy="3"/>
<feComposite in2="hardAlpha" operator="out"/>
<feColorMatrix type="matrix" values="0 0 0 0 0 0 0 0 0 0 0 0 0 0 0 0 0 0 1 0"/>
<feBlend mode="normal" in2="BackgroundImageFix" result="effect1_dropShadow_1_22442"/>
<feBlend mode="normal" in="SourceGraphic" in2="effect1_dropShadow_1_22442" result="shape"/>
</filter>
</defs>
</svg>
